<?xml version="1.0" encoding="UTF-8" standalone="no"?>
<!DOCTYPE svg PUBLIC "-//W3C//DTD SVG 1.1//EN" "http://www.w3.org/Graphics/SVG/1.1/DTD/svg11.dtd">
<svg xmlns="http://www.w3.org/2000/svg" version="1.1" viewBox="0.00 0.00 800.00 600.00">
<path fill="#f1e845" d="
  M 442.53 218.75
  L 464.02 218.75
  A 1.33 1.32 -13.7 0 0 465.20 216.82
  C 460.08 206.99 457.16 196.92 463.16 186.37
  Q 482.24 152.88 501.64 119.58
  C 502.10 118.80 502.94 117.87 503.44 116.89
  A 1.77 1.69 88.7 0 1 504.06 116.21
  C 510.20 112.43 512.96 117.14 515.25 122.32
  Q 529.44 154.26 543.15 186.43
  C 548.47 198.91 550.86 207.80 541.09 217.72
  A 0.60 0.60 0.0 0 0 541.52 218.75
  L 564.50 218.75
  A 1.01 1.01 0.0 0 0 565.39 217.25
  C 559.13 206.01 559.08 203.49 565.66 192.00
  Q 578.62 169.35 588.49 152.99
  C 591.62 147.79 595.31 148.08 597.83 153.41
  Q 609.08 177.20 619.97 201.16
  C 622.56 206.85 620.19 212.39 616.78 217.04
  A 1.13 1.13 0.0 0 0 617.70 218.84
  L 635.27 218.71
  A 1.07 1.07 0.0 0 0 636.18 217.08
  C 633.84 213.22 631.85 209.37 634.06 204.77
  Q 640.82 190.67 648.74 177.18
  C 650.44 174.29 653.42 172.86 655.40 176.58
  Q 662.58 190.08 668.76 204.06
  C 670.95 209.02 670.37 212.90 667.70 217.30
  A 0.96 0.96 0.0 0 0 668.52 218.75
  Q 716.50 218.74 764.94 218.76
  Q 768.22 218.76 768.18 222.20
  Q 768.18 222.68 767.84 223.03
  C 767.27 223.62 766.55 224.45 765.83 224.87
  Q 640.70 296.97 515.59 369.11
  C 513.65 370.22 513.06 371.20 512.72 373.55
  C 509.34 396.93 497.20 419.87 477.41 433.26
  Q 475.64 434.46 474.14 435.97
  A 1.30 1.28 -22.9 0 0 473.76 436.88
  L 473.72 494.26
  A 3.74 3.73 90.0 0 1 469.99 498.00
  L 386.50 498.00
  A 1.00 1.00 0.0 0 1 385.50 497.00
  L 385.50 438.99
  A 0.97 0.96 18.1 0 0 385.10 438.21
  C 360.91 420.43 347.08 394.53 343.55 365.15
  C 341.40 347.26 346.10 327.92 353.10 311.52
  A 0.43 0.43 0.0 0 0 352.35 311.12
  C 347.06 319.24 342.00 328.27 338.84 337.14
  C 325.21 375.30 337.71 419.07 371.41 442.62
  Q 372.54 443.41 372.94 444.37
  A 0.77 0.77 0.0 0 1 372.38 445.41
  Q 350.75 449.73 328.96 448.90
  C 308.55 448.13 294.21 442.57 287.85 421.51
  A 0.74 0.71 -87.7 0 0 287.44 421.05
  Q 286.81 420.79 286.51 421.47
  A 0.05 0.01 -58.3 0 0 286.50 421.50
  L 286.50 497.50
  A 0.50 0.50 0.0 0 1 286.00 498.00
  L 234.02 498.00
  A 2.34 2.34 0.0 0 1 231.68 495.60
  C 232.12 476.97 232.53 458.58 232.21 440.10
  A 1.25 1.24 21.4 0 0 231.82 439.22
  C 227.90 435.40 223.43 431.41 220.31 427.49
  Q 200.90 403.12 199.86 371.24
  C 199.72 366.87 200.57 355.83 203.64 348.94
  Q 203.77 348.65 203.54 348.42
  L 203.30 348.18
  A 0.58 0.58 0.0 0 0 202.37 348.33
  C 185.50 382.34 192.70 417.21 218.91 443.33
  C 220.03 444.45 220.48 446.07 220.48 447.77
  C 220.48 458.08 220.51 466.51 220.92 478.61
  C 221.05 482.10 222.45 493.92 220.24 497.53
  A 0.99 0.97 -73.8 0 1 219.41 498.00
  L 167.00 498.00
  A 0.50 0.50 0.0 0 1 166.50 497.50
  Q 166.49 463.20 166.51 428.71
  C 166.52 405.31 158.50 387.07 135.63 379.04
  C 129.27 376.80 120.47 377.05 114.25 377.01
  Q 87.16 376.84 48.90 377.25
  Q 41.84 377.32 38.28 376.05
  C 30.76 373.35 25.50 366.93 24.68 358.99
  C 23.80 350.50 29.19 344.04 36.34 339.53
  Q 81.47 311.12 95.92 302.65
  Q 112.26 293.06 129.96 298.69
  C 137.04 300.94 146.01 306.58 152.59 309.45
  C 170.98 317.48 183.78 307.63 198.10 295.94
  A 0.62 0.62 0.0 0 0 197.85 294.85
  C 190.73 293.15 181.04 290.93 178.71 282.76
  Q 169.99 252.23 166.81 238.70
  C 165.13 231.59 172.57 231.97 177.28 233.40
  Q 192.67 238.09 208.03 242.90
  C 217.50 245.86 222.64 246.51 226.06 254.84
  C 227.48 258.29 229.03 261.71 230.27 265.19
  A 0.62 0.61 61.0 0 0 231.23 265.47
  L 246.18 253.62
  Q 246.69 253.23 246.20 252.81
  C 237.66 245.56 230.30 242.26 230.36 229.25
  C 230.46 203.83 231.90 178.53 231.56 153.07
  C 231.49 148.12 237.11 144.67 241.20 147.80
  Q 272.28 171.54 303.14 195.59
  C 311.78 202.31 312.16 211.93 310.93 221.70
  A 1.13 1.13 0.0 0 0 312.24 222.96
  L 329.74 220.04
  A 0.99 0.99 0.0 0 0 330.40 218.52
  C 326.00 211.93 321.73 204.66 321.74 196.54
  C 321.74 190.20 325.08 183.56 327.87 177.41
  Q 345.37 138.68 367.83 87.43
  C 371.62 78.79 379.08 78.75 384.16 86.22
  Q 392.64 98.70 402.31 115.19
  Q 430.93 163.97 444.23 189.54
  C 448.41 197.58 445.29 209.00 441.62 217.36
  Q 441.00 218.75 442.53 218.75
  Z
  M 82.2325 353.0100
  A 12.92 8.04 89.9 0 0 90.2500 340.0760
  A 12.92 8.04 89.9 0 0 82.1875 327.1700
  A 12.92 8.04 89.9 0 0 74.1700 340.1040
  A 12.92 8.04 89.9 0 0 82.2325 353.0100
  Z"
/>
<path fill="#313430" d="
  M 616.67 462.91
  C 605.23 457.43 590.88 453.08 587.60 438.87
  C 583.66 421.75 596.20 409.35 612.68 409.25
  Q 627.69 409.16 636.67 422.62
  A 0.81 0.81 0.0 0 1 636.44 423.75
  L 624.47 431.46
  A 0.89 0.88 54.1 0 1 623.31 431.27
  C 621.56 429.12 619.54 426.70 617.08 425.53
  C 605.38 419.94 597.50 435.24 612.34 441.38
  Q 622.07 445.40 629.43 449.81
  C 648.99 461.52 646.06 487.73 623.95 494.70
  C 608.42 499.59 590.36 493.86 581.97 479.25
  A 0.92 0.90 -30.1 0 1 582.31 478.01
  L 594.42 470.93
  A 1.42 1.42 0.0 0 1 596.31 471.35
  C 610.24 491.86 638.92 473.57 616.67 462.91
  Z"
/>
<path fill="#313430" d="
  M 558.03 493.90
  C 544.04 499.52 527.63 495.34 520.42 481.37
  A 1.33 1.33 0.0 0 1 520.92 479.62
  L 533.39 472.18
  Q 534.46 471.54 534.95 472.69
  C 539.29 482.89 554.49 484.66 554.62 470.80
  Q 554.89 441.11 554.70 411.07
  A 0.57 0.57 0.0 0 1 555.27 410.50
  L 571.01 410.50
  A 0.84 0.83 0.7 0 1 571.85 411.35
  Q 571.37 440.14 571.96 469.00
  C 572.17 479.24 568.41 489.74 558.03 493.90
  Z"
/>
<path fill="#f1e845" d="
  M 319.46 495.82
  L 319.78 459.55
  Q 319.78 459.02 320.31 459.01
  C 331.54 458.96 343.31 459.40 353.84 458.23
  Q 362.67 457.24 371.81 455.62
  A 1.37 1.37 0.0 0 1 373.42 456.96
  L 373.73 495.62
  A 2.36 2.35 89.8 0 1 371.38 498.00
  L 321.63 498.00
  Q 319.45 498.00 319.46 495.82
  Z"
/>
<ellipse fill="#313430" cx="0.00" cy="0.00" transform="translate(498.93,488.76) rotate(-0.1)" rx="8.29" ry="7.93"/>
</svg>
