<svg version="1.2" xmlns="http://www.w3.org/2000/svg" viewBox="0 0 800 600" width="800" height="600">
	<title>steg-logo-background-svg</title>
	<style>
		.s0 { fill: #f1e845 } 
		.s1 { fill: #313430 } 
	</style>
	<path id="Shape 2" class="s0" d="m0 15c0-8.3 6.7-15 15-15h770c8.3 0 15 6.7 15 15v570c0 8.3-6.7 15-15 15h-770c-8.3 0-15-6.7-15-15z"/>
	<filter id="f0">
		<feFlood flood-color="#313531" flood-opacity="1" />
		<feBlend mode="normal" in2="SourceGraphic"/>
		<feComposite in2="SourceAlpha" operator="in" />
	</filter>
	<g id="Folder 1" filter="url(#f0)">
		<path id="Layer" fill-rule="evenodd" class="s0" d="m442.5 218.8l21.5-0.1q0.4 0 0.7-0.1 0.3-0.2 0.5-0.5 0.1-0.3 0.1-0.6 0.1-0.4-0.1-0.7c-5.1-9.8-8-19.9-2-30.4q19-33.5 38.4-66.8c0.5-0.8 1.3-1.7 1.8-2.7q0.1-0.1 0.2-0.2 0-0.1 0.1-0.2 0.1-0.1 0.2-0.2 0.1 0 0.2-0.1c6.1-3.8 8.9 0.9 11.2 6.1q14.1 32 27.8 64.1c5.4 12.5 7.8 21.4-2 31.3q-0.1 0.1-0.2 0.3 0 0.2 0.1 0.4 0 0.2 0.2 0.3 0.1 0.1 0.3 0.1l23-0.1q0.3 0.1 0.5-0.1 0.2-0.1 0.4-0.3 0.1-0.3 0.1-0.5 0-0.3-0.1-0.6c-6.3-11.2-6.3-13.7 0.3-25.2q12.9-22.6 22.8-39c3.1-5.2 6.8-4.9 9.3 0.4q11.3 23.8 22.2 47.8c2.6 5.6 0.2 11.2-3.2 15.8q-0.2 0.3-0.2 0.6-0.1 0.3 0.1 0.6 0.1 0.3 0.4 0.5 0.3 0.1 0.6 0.1l17.6-0.1q0.3 0 0.5-0.1 0.3-0.2 0.4-0.4 0.1-0.3 0.1-0.6 0-0.3-0.1-0.5c-2.4-3.9-4.3-7.7-2.1-12.3q6.7-14.1 14.6-27.6c1.7-2.9 4.7-4.3 6.7-0.6q7.2 13.5 13.4 27.5c2.2 4.9 1.6 8.8-1.1 13.2q-0.1 0.2-0.1 0.5 0 0.2 0.1 0.5 0.1 0.2 0.3 0.3 0.3 0.1 0.5 0.1 48 0 96.4 0.1 3.3 0 3.3 3.4 0 0.5-0.4 0.8c-0.5 0.6-1.3 1.4-2 1.9q-125.1 72.1-250.2 144.2c-2 1.1-2.5 2.1-2.9 4.5-3.4 23.3-15.5 46.3-35.3 59.7q-1.8 1.2-3.3 2.7-0.1 0.1-0.1 0.2-0.1 0.1-0.1 0.2-0.1 0.1-0.1 0.2 0 0.2 0 0.3l-0.1 57.4q0 0.7-0.3 1.4-0.2 0.7-0.8 1.2-0.5 0.5-1.2 0.8-0.7 0.3-1.4 0.3h-83.5q-0.2 0-0.4-0.1-0.2-0.1-0.3-0.2-0.1-0.1-0.2-0.3-0.1-0.2-0.1-0.4c0-0.1 0-58.1 0-58.2q-0.1-0.1-0.1-0.2-0.1-0.1-0.1-0.2-0.1-0.1-0.2-0.2c-24.2-17.8-38-43.7-41.6-73.1-2.1-17.8 2.6-37.2 9.6-53.6q0.1-0.1 0-0.3-0.1-0.1-0.2-0.2-0.1-0.1-0.3 0-0.2 0-0.2 0.1c-5.3 8.1-10.4 17.2-13.6 26-13.6 38.2-1.1 82 32.6 105.5q1.1 0.8 1.5 1.8 0.1 0.1 0.1 0.3 0 0.2-0.1 0.3-0.1 0.2-0.2 0.3-0.2 0.1-0.3 0.1-21.7 4.3-43.4 3.5c-20.5-0.8-34.8-6.3-41.1-27.4q-0.1-0.1-0.1-0.1-0.1-0.1-0.1-0.2-0.1 0-0.1-0.1-0.1 0-0.2 0-0.6-0.3-0.9 0.4c0 0.1 0 76.1 0 76.2q-0.1 0.1-0.1 0.2-0.1 0-0.2 0.1-0.1 0-0.2 0h-52q-0.5 0-0.9-0.2-0.4-0.2-0.8-0.5-0.3-0.3-0.5-0.8-0.1-0.4-0.1-0.9c0.4-18.6 0.8-37 0.5-55.5q0-0.1 0-0.2 0-0.2-0.1-0.3 0-0.1-0.1-0.2-0.1-0.1-0.2-0.2c-3.9-3.8-8.4-7.8-11.5-11.7q-19.4-24.4-20.4-56.3c-0.2-4.3 0.7-15.4 3.7-22.3q0.2-0.3-0.1-0.5c-0.1-0.1-0.3-0.3-0.4-0.4q-0.2 0-0.3 0-0.1 0-0.3 0.1-0.1 0.1-0.1 0.2c-16.9 34-9.7 68.9 16.5 95 1.1 1.1 1.6 2.8 1.6 4.5 0 10.3 0 18.7 0.4 30.8 0.1 3.5 1.5 15.3-0.7 18.9q0 0.1-0.1 0.2-0.1 0.1-0.2 0.2-0.1 0-0.2 0.1-0.2 0-0.3 0c-0.1 0-52.5 0-52.6 0q-0.1-0.1-0.2-0.1 0-0.1-0.1-0.2 0-0.1 0-0.2 0-34.3 0-68.8c0-23.4-8-41.6-30.9-49.7-6.3-2.2-15.1-1.9-21.4-2q-27-0.2-65.3 0.2-7.1 0.1-10.6-1.1c-7.5-2.7-12.8-9.2-13.6-17.1-0.9-8.5 4.5-15 11.6-19.5q45.2-28.4 59.6-36.9 16.4-9.5 34.1-3.9c7 2.2 16 7.9 22.6 10.7 18.4 8.1 31.2-1.8 45.5-13.5q0.1-0.1 0.2-0.2 0.1-0.2 0-0.4 0-0.2-0.1-0.3-0.2-0.1-0.4-0.2c-7.1-1.7-16.8-3.9-19.1-12q-8.7-30.6-11.9-44.1c-1.7-7.1 5.8-6.7 10.5-5.3q15.4 4.7 30.7 9.5c9.5 3 14.6 3.6 18.1 11.9 1.4 3.5 2.9 6.9 4.2 10.4q0 0.1 0.1 0.2 0.1 0.1 0.3 0.2 0.1 0 0.3 0 0.1 0 0.2-0.1l15-11.9q0.5-0.4 0-0.8c-8.5-7.2-15.9-10.5-15.8-23.6 0.1-25.4 1.5-50.7 1.2-76.1-0.1-5 5.5-8.4 9.6-5.3q31.1 23.7 61.9 47.8c8.7 6.7 9.1 16.3 7.8 26.1q0 0.3 0.1 0.5 0.1 0.3 0.3 0.5 0.2 0.1 0.4 0.2 0.3 0.1 0.5 0.1l17.5-3q0.3 0 0.5-0.2 0.2-0.1 0.3-0.3 0.1-0.3 0.1-0.5-0.1-0.3-0.2-0.5c-4.4-6.6-8.7-13.8-8.7-22 0-6.3 3.4-12.9 6.2-19.1q17.5-38.7 39.9-90c3.8-8.6 11.3-8.7 16.4-1.2q8.4 12.5 18.1 29 28.6 48.8 41.9 74.3c4.2 8.1 1.1 19.5-2.6 27.9q-0.6 1.4 0.9 1.4zm-360.3 134.2q1.6 0 3.1-1c1-0.6 1.9-1.6 2.6-2.8 0.8-1.2 1.3-2.6 1.7-4.2 0.4-1.5 0.7-3.2 0.7-4.9-0.1-1.7-0.3-3.4-0.7-5-0.4-1.5-1-3-1.7-4.2-0.8-1.2-1.7-2.1-2.6-2.8q-1.5-0.9-3.1-0.9-1.6 0-3.1 1c-1 0.6-1.8 1.6-2.6 2.8-0.7 1.2-1.3 2.6-1.7 4.2-0.4 1.5-0.6 3.2-0.6 4.9 0 1.7 0.2 3.4 0.6 4.9 0.4 1.6 1 3 1.7 4.2 0.8 1.2 1.7 2.2 2.7 2.8q1.4 1 3 1z"/>
		<path id="Layer" class="s1" d="m616.7 462.9c-11.5-5.5-25.8-9.8-29.1-24-3.9-17.1 8.6-29.5 25.1-29.6q15-0.1 24 13.3 0.1 0.2 0.1 0.3 0 0.2 0 0.3 0 0.2-0.1 0.3-0.1 0.2-0.3 0.3l-11.9 7.7q-0.2 0-0.3 0.1-0.2 0-0.3 0-0.2 0-0.3-0.1-0.2-0.1-0.3-0.2c-1.7-2.2-3.8-4.6-6.2-5.8-11.7-5.6-19.6 9.7-4.8 15.9q9.8 4 17.1 8.4c19.6 11.7 16.7 37.9-5.5 44.9-15.5 4.9-33.5-0.8-41.9-15.4q-0.1-0.2-0.1-0.4-0.1-0.2 0-0.3 0-0.2 0.1-0.4 0.2-0.1 0.3-0.2l12.1-7.1q0.3-0.1 0.5-0.1 0.3-0.1 0.5 0 0.3 0 0.5 0.2 0.3 0.1 0.4 0.3c13.9 20.6 42.6 2.3 20.4-8.4z"/>
		<path id="Layer" class="s1" d="m558 493.9c-14 5.6-30.4 1.4-37.6-12.5q-0.1-0.3-0.1-0.5 0-0.3 0-0.5 0.1-0.2 0.2-0.4 0.2-0.2 0.4-0.4l12.5-7.4q1.1-0.7 1.6 0.5c4.3 10.2 19.5 12 19.6-1.9q0.3-29.7 0.1-59.7 0-0.1 0-0.2 0.1-0.2 0.2-0.2 0-0.1 0.2-0.2 0.1 0 0.2 0h15.7q0.2 0 0.3 0.1 0.2 0 0.3 0.2 0.1 0.1 0.2 0.2 0.1 0.2 0.1 0.4-0.5 28.7 0.1 57.6c0.2 10.2-3.6 20.7-14 24.9z"/>
		<path id="Layer" class="s0" d="m319.5 495.8l0.3-36.3q0-0.5 0.5-0.5c11.2 0 23 0.4 33.5-0.8q8.9-1 18-2.6 0.3 0 0.6 0 0.3 0.1 0.5 0.3 0.3 0.2 0.4 0.5 0.1 0.3 0.1 0.6l0.3 38.6q0 0.5-0.1 0.9-0.2 0.5-0.6 0.8-0.3 0.3-0.7 0.5-0.5 0.2-0.9 0.2h-49.8q-2.2 0-2.1-2.2z"/>
		<path id="Layer" class="s1" d="m498.9 496.7c-4.5 0-8.3-3.5-8.3-7.9 0-4.4 3.7-8 8.3-8 4.6 0 8.3 3.6 8.3 7.9 0 4.4-3.7 8-8.3 8z"/>
	</g>
</svg>